name Walk5.mot
datacolumns 19
datarows 22
range 2.01500000 2.03600000
endheader

                time	   L_ground_force_vx	   L_ground_force_vy	   L_ground_force_vz	   L_ground_force_px	   L_ground_force_py	   L_ground_force_pz	   R_ground_force_vx	   R_ground_force_vy	   R_ground_force_vz	   R_ground_force_px	   R_ground_force_py	   R_ground_force_pz	   L_ground_torque_x	   L_ground_torque_y	   L_ground_torque_z	   R_ground_torque_x	   R_ground_torque_y	   R_ground_torque_z	
          2.01500000	        -25.17396845	        518.24449184	        -45.02366352	          0.26283909	          0.00000000	          0.08812979	          0.00000000	          0.00000000	          0.00000000	          0.00000000	          0.00000000	          0.00000000	          0.00000000	          0.80653878	          0.00000000	          0.00000000	          0.00000000	          0.00000000	
          2.01600000	        -24.82695363	        516.77649311	        -44.92977396	          0.26329331	          0.00000000	          0.08811357	          0.00000000	          0.00000000	          0.00000000	          0.00000000	          0.00000000	          0.00000000	          0.00000000	          0.80407954	          0.00000000	          0.00000000	          0.00000000	          0.00000000	
          2.01700000	        -24.47617178	        515.36513826	        -44.84356792	          0.26364939	          0.00000000	          0.08815507	          0.00000000	          0.00000000	          0.00000000	          0.00000000	          0.00000000	          0.00000000	          0.00000000	          0.82140899	          0.00000000	          0.00000000	          0.00000000	          0.00000000	
          2.01800000	        -24.12702396	        514.07295484	        -44.76025355	          0.26395129	          0.00000000	          0.08827853	          0.00000000	          0.00000000	          0.00000000	          0.00000000	          0.00000000	          0.00000000	          0.00000000	          0.85289804	          0.00000000	          0.00000000	          0.00000000	          0.00000000	
          2.01900000	        -23.79245029	        512.92882095	        -44.66979352	          0.26427489	          0.00000000	          0.08848044	          0.00000000	          0.00000000	          0.00000000	          0.00000000	          0.00000000	          0.00000000	          0.00000000	          0.88430065	          0.00000000	          0.00000000	          0.00000000	          0.00000000	
          2.02000000	        -23.48343762	        511.92498823	        -44.56517097	          0.26466848	          0.00000000	          0.08873109	          0.00000000	          0.00000000	          0.00000000	          0.00000000	          0.00000000	          0.00000000	          0.00000000	          0.90290747	          0.00000000	          0.00000000	          0.00000000	          0.00000000	
          2.02100000	        -23.20169948	        511.01649375	        -44.44890710	          0.26514042	          0.00000000	          0.08898453	          0.00000000	          0.00000000	          0.00000000	          0.00000000	          0.00000000	          0.00000000	          0.00000000	          0.90397217	          0.00000000	          0.00000000	          0.00000000	          0.00000000	
          2.02200000	        -22.94100614	        510.12438173	        -44.32843806	          0.26567546	          0.00000000	          0.08918359	          0.00000000	          0.00000000	          0.00000000	          0.00000000	          0.00000000	          0.00000000	          0.00000000	          0.88745114	          0.00000000	          0.00000000	          0.00000000	          0.00000000	
          2.02300000	        -22.69217472	        509.17129859	        -44.20671263	          0.26623752	          0.00000000	          0.08928403	          0.00000000	          0.00000000	          0.00000000	          0.00000000	          0.00000000	          0.00000000	          0.00000000	          0.85642650	          0.00000000	          0.00000000	          0.00000000	          0.00000000	
          2.02400000	        -22.44552214	        508.14281963	        -44.07804092	          0.26679673	          0.00000000	          0.08930158	          0.00000000	          0.00000000	          0.00000000	          0.00000000	          0.00000000	          0.00000000	          0.00000000	          0.81803687	          0.00000000	          0.00000000	          0.00000000	          0.00000000	
          2.02500000	        -22.18944201	        507.08252045	        -43.93498152	          0.26736074	          0.00000000	          0.08929856	          0.00000000	          0.00000000	          0.00000000	          0.00000000	          0.00000000	          0.00000000	          0.00000000	          0.78242986	          0.00000000	          0.00000000	          0.00000000	          0.00000000	
          2.02600000	        -21.90830975	        506.02725289	        -43.77889362	          0.26795538	          0.00000000	          0.08931433	          0.00000000	          0.00000000	          0.00000000	          0.00000000	          0.00000000	          0.00000000	          0.00000000	          0.76116308	          0.00000000	          0.00000000	          0.00000000	          0.00000000	
          2.02700000	        -21.58971754	        504.99393895	        -43.62082422	          0.26857807	          0.00000000	          0.08934594	          0.00000000	          0.00000000	          0.00000000	          0.00000000	          0.00000000	          0.00000000	          0.00000000	          0.76409635	          0.00000000	          0.00000000	          0.00000000	          0.00000000	
          2.02800000	        -21.23675804	        504.01080854	        -43.47424087	          0.26918306	          0.00000000	          0.08938349	          0.00000000	          0.00000000	          0.00000000	          0.00000000	          0.00000000	          0.00000000	          0.00000000	          0.79217857	          0.00000000	          0.00000000	          0.00000000	          0.00000000	
          2.02900000	        -20.86635174	        503.11239732	        -43.34515791	          0.26971326	          0.00000000	          0.08943096	          0.00000000	          0.00000000	          0.00000000	          0.00000000	          0.00000000	          0.00000000	          0.00000000	          0.83283230	          0.00000000	          0.00000000	          0.00000000	          0.00000000	
          2.03000000	        -20.49733356	        502.31032436	        -43.22500754	          0.27014575	          0.00000000	          0.08950127	          0.00000000	          0.00000000	          0.00000000	          0.00000000	          0.00000000	          0.00000000	          0.00000000	          0.86725817	          0.00000000	          0.00000000	          0.00000000	          0.00000000	
          2.03100000	        -20.14327570	        501.58687904	        -43.09633579	          0.27051679	          0.00000000	          0.08960378	          0.00000000	          0.00000000	          0.00000000	          0.00000000	          0.00000000	          0.00000000	          0.00000000	          0.88268625	          0.00000000	          0.00000000	          0.00000000	          0.00000000	
          2.03200000	        -19.81421376	        500.90121797	        -42.95050419	          0.27089824	          0.00000000	          0.08973062	          0.00000000	          0.00000000	          0.00000000	          0.00000000	          0.00000000	          0.00000000	          0.00000000	          0.87635956	          0.00000000	          0.00000000	          0.00000000	          0.00000000	
          2.03300000	        -19.52290200	        500.20290785	        -42.79743314	          0.27133411	          0.00000000	          0.08985785	          0.00000000	          0.00000000	          0.00000000	          0.00000000	          0.00000000	          0.00000000	          0.00000000	          0.85249364	          0.00000000	          0.00000000	          0.00000000	          0.00000000	
          2.03400000	        -19.27727954	        499.45446766	        -42.65205459	          0.27180636	          0.00000000	          0.08995995	          0.00000000	          0.00000000	          0.00000000	          0.00000000	          0.00000000	          0.00000000	          0.00000000	          0.82168708	          0.00000000	          0.00000000	          0.00000000	          0.00000000	
          2.03500000	        -19.06533223	        498.64105605	        -42.51885725	          0.27226593	          0.00000000	          0.09001662	          0.00000000	          0.00000000	          0.00000000	          0.00000000	          0.00000000	          0.00000000	          0.00000000	          0.80051603	          0.00000000	          0.00000000	          0.00000000	          0.00000000	
          2.03600000	        -18.86290718	        497.77654201	        -42.39747730	          0.27267998	          0.00000000	          0.09002399	          0.00000000	          0.00000000	          0.00000000	          0.00000000	          0.00000000	          0.00000000	          0.00000000	          0.80256343	          0.00000000	          0.00000000	          0.00000000	          0.00000000	
